# Blender v2.76 (sub 0) OBJ File: 'interim.blend'
# www.blender.org
mtllib object12.mtl
o Object12
v 0.000910 2.218619 -0.550448
v -0.007455 2.210582 -0.555256
v -0.017849 2.221393 -0.553274
v -0.008622 2.228534 -0.548630
v -0.003078 2.229693 -0.537434
v 0.004374 2.221941 -0.538855
v -0.004456 2.224200 -0.526237
v 0.000917 2.218611 -0.527262
v -0.011955 2.215261 -0.521594
v -0.007444 2.210570 -0.522454
v -0.021183 2.208120 -0.526237
v -0.015810 2.202531 -0.527262
v -0.026726 2.206960 -0.537434
v -0.019274 2.199208 -0.538855
v -0.025349 2.212455 -0.548630
v -0.015817 2.202539 -0.550448
v -0.027533 2.231467 -0.547478
v -0.017503 2.237772 -0.543315
v -0.010022 2.236917 -0.533278
v -0.009462 2.229408 -0.523242
v -0.016157 2.219634 -0.519079
v -0.026189 2.213327 -0.523242
v -0.033669 2.214184 -0.533278
v -0.034230 2.221692 -0.543315
v -0.035848 2.240115 -0.538263
v -0.025128 2.245704 -0.534865
v -0.015983 2.243117 -0.526672
v -0.013760 2.233878 -0.518478
v -0.019767 2.223387 -0.515079
v -0.030487 2.217798 -0.518478
v -0.039631 2.220384 -0.526672
v -0.041854 2.229624 -0.534865
v -0.042227 2.246751 -0.526257
v -0.030977 2.251788 -0.523855
v -0.020556 2.247874 -0.518063
v -0.017058 2.237309 -0.512271
v -0.022535 2.226266 -0.509870
v -0.033784 2.221229 -0.512271
v -0.044204 2.225142 -0.518063
v -0.047704 2.235708 -0.523855
v -0.046234 2.250919 -0.512277
v -0.034652 2.255610 -0.511035
v -0.023430 2.250864 -0.508040
v -0.019128 2.239464 -0.505045
v -0.024273 2.228075 -0.503803
v -0.035855 2.223383 -0.505045
v -0.047078 2.228130 -0.508040
v -0.051378 2.239531 -0.511035
v -0.047620 2.252360 -0.478090
v -0.035895 2.256925 -0.478274
v -0.024401 2.251874 -0.478724
v -0.019807 2.240190 -0.479173
v -0.024831 2.228654 -0.479358
v -0.036555 2.224090 -0.479173
v -0.048049 2.229141 -0.478724
v -0.052643 2.240825 -0.478274
v 0.031352 2.170213 -0.512331
v 0.036497 2.181600 -0.511085
v 0.037783 2.180283 -0.478325
v 0.032760 2.168748 -0.478146
v 0.032198 2.192999 -0.508079
v 0.033188 2.191968 -0.478764
v 0.020978 2.197743 -0.505073
v 0.021694 2.197020 -0.479202
v 0.009397 2.193050 -0.503826
v 0.009969 2.192454 -0.479382
v 0.004251 2.181663 -0.505073
v 0.004947 2.180919 -0.479202
v 0.008550 2.170266 -0.508079
v 0.009541 2.169235 -0.478764
v 0.019771 2.165520 -0.511085
v 0.021036 2.164183 -0.478325
v 0.027335 2.174392 -0.526305
v 0.032814 2.185432 -0.523899
v 0.029317 2.195994 -0.518097
v 0.018901 2.199903 -0.512296
v 0.007653 2.194865 -0.509891
v 0.002175 2.183824 -0.512296
v 0.005670 2.173261 -0.518097
v 0.016087 2.169353 -0.523899
v 0.020949 2.181034 -0.538302
v 0.026957 2.191525 -0.534901
v 0.024739 2.200757 -0.526700
v 0.015601 2.203337 -0.518498
v 0.004882 2.197747 -0.515097
v -0.001126 2.187258 -0.518498
v 0.001092 2.178025 -0.526700
v 0.010230 2.175444 -0.534901
v 0.012628 2.189690 -0.547506
v 0.019326 2.199461 -0.543341
v 0.018773 2.206963 -0.533298
v 0.011299 2.207812 -0.523256
v 0.001271 2.201503 -0.519091
v -0.005428 2.191732 -0.523256
v -0.004875 2.184230 -0.533298
v 0.002600 2.183381 -0.543341
v 0.002939 2.199768 -0.553289
v 0.010442 2.208703 -0.548643
v 0.011827 2.214189 -0.537444
v 0.006291 2.213021 -0.526245
v -0.002933 2.205877 -0.521601
v -0.010436 2.196941 -0.526245
v -0.011821 2.191456 -0.537444
v -0.006285 2.192623 -0.548643
vt 0.378949 0.651260
vt 0.379825 0.651257
vt 0.379465 0.653993
vt 0.378618 0.653769
vt 0.376576 0.653223
vt 0.376834 0.651260
vt 0.374534 0.652674
vt 0.374720 0.651260
vt 0.373687 0.652444
vt 0.373843 0.651257
vt 0.378409 0.656543
vt 0.377651 0.656105
vt 0.375818 0.655049
vt 0.373988 0.653991
vt 0.373228 0.653551
vt 0.376729 0.658732
vt 0.376111 0.658111
vt 0.374615 0.656617
vt 0.373119 0.655122
vt 0.372501 0.654501
vt 0.374540 0.660411
vt 0.374103 0.659654
vt 0.373045 0.657823
vt 0.371988 0.655990
vt 0.371551 0.655230
vt 0.374103 0.659649
vt 0.371993 0.661467
vt 0.371764 0.660620
vt 0.371218 0.658578
vt 0.370670 0.656536
vt 0.370444 0.655687
vt 0.365756 0.661834
vt 0.365790 0.660953
vt 0.365871 0.658838
vt 0.365952 0.656720
vt 0.365986 0.655839
vt 0.371993 0.641050
vt 0.371764 0.641897
vt 0.365790 0.641564
vt 0.365756 0.640681
vt 0.371218 0.643939
vt 0.365871 0.643683
vt 0.370670 0.645981
vt 0.365952 0.645797
vt 0.370444 0.646828
vt 0.365986 0.646681
vt 0.374540 0.642104
vt 0.374103 0.642866
vt 0.373045 0.644696
vt 0.371988 0.646529
vt 0.371549 0.647287
vt 0.376729 0.643785
vt 0.376111 0.644406
vt 0.374615 0.645902
vt 0.373119 0.647396
vt 0.372501 0.648014
vt 0.378409 0.645972
vt 0.377651 0.646414
vt 0.375818 0.647472
vt 0.373988 0.648529
vt 0.373228 0.648964
vt 0.379465 0.648522
vt 0.378618 0.648750
vt 0.376576 0.649299
vt 0.374534 0.649845
vt 0.373687 0.650071
vt 0.378618 0.648748
vn 0.190000 0.350800 -0.917000
vn 0.630200 0.675900 -0.382000
vn 0.630200 0.675900 -0.382100
vn 0.700200 0.603100 0.382100
vn 0.700200 0.603100 0.382000
vn 0.358000 0.176000 0.917000
vn 0.357900 0.176100 0.917000
vn 0.357900 0.176000 0.917000
vn -0.189900 -0.350800 0.917000
vn -0.630200 -0.675900 0.382000
vn -0.630200 -0.675900 0.382100
vn -0.700200 -0.603100 -0.382100
vn -0.358000 -0.176000 -0.917000
vn -0.358000 -0.176100 -0.917000
vn 0.028400 0.518900 -0.854400
vn 0.562900 0.745900 -0.356000
vn 0.767600 0.533000 0.356000
vn 0.519500 0.008000 0.854400
vn 0.519600 0.008000 0.854400
vn -0.028400 -0.518800 0.854500
vn -0.028400 -0.518800 0.854400
vn -0.028500 -0.518700 0.854500
vn -0.563000 -0.745900 0.355900
vn -0.562900 -0.745900 0.356000
vn -0.767600 -0.533100 -0.355900
vn -0.767500 -0.533100 -0.355900
vn -0.767600 -0.533000 -0.356000
vn -0.519600 -0.007900 -0.854400
vn -0.116500 0.669600 -0.733600
vn -0.116500 0.669500 -0.733600
vn -0.116500 0.669600 -0.733500
vn 0.502500 0.808700 -0.305600
vn 0.502600 0.808800 -0.305500
vn 0.502500 0.808700 -0.305700
vn 0.827900 0.470300 0.305700
vn 0.664500 -0.142800 0.733500
vn 0.664400 -0.142800 0.733600
vn 0.664500 -0.142800 0.733600
vn 0.116600 -0.669600 0.733500
vn 0.116500 -0.669600 0.733500
vn -0.502600 -0.808700 0.305500
vn -0.502500 -0.808800 0.305500
vn -0.827900 -0.470300 -0.305600
vn -0.827900 -0.470200 -0.305600
vn -0.827800 -0.470400 -0.305600
vn -0.664500 0.142800 -0.733600
vn -0.664400 0.142800 -0.733600
vn -0.234800 0.792600 -0.562700
vn -0.234700 0.792600 -0.562700
vn -0.234800 0.792600 -0.562800
vn -0.234800 0.792500 -0.562800
vn 0.453300 0.860000 -0.234400
vn 0.877200 0.419000 0.234500
vn 0.877200 0.419000 0.234400
vn 0.782700 -0.265800 0.562800
vn 0.234800 -0.792600 0.562800
vn 0.234800 -0.792500 0.562800
vn -0.453300 -0.859900 0.234500
vn -0.453300 -0.860000 0.234500
vn -0.453400 -0.859900 0.234500
vn -0.877200 -0.419000 -0.234500
vn -0.877100 -0.419100 -0.234500
vn -0.877200 -0.418900 -0.234400
vn -0.782700 0.265800 -0.562800
vn -0.318300 0.879600 -0.353500
vn 0.418400 0.896200 -0.147300
vn 0.418400 0.896200 -0.147400
vn 0.912000 0.382800 0.147300
vn 0.912000 0.382800 0.147600
vn 0.912000 0.382800 0.147200
vn 0.912000 0.382700 0.147300
vn 0.866400 -0.352800 0.353400
vn 0.866400 -0.352900 0.353400
vn 0.318400 -0.879600 0.353500
vn 0.318400 -0.879600 0.353400
vn -0.418400 -0.896300 0.147200
vn -0.418400 -0.896200 0.147200
vn -0.912000 -0.382800 -0.147300
vn -0.912100 -0.382700 -0.147300
vn -0.912000 -0.382900 -0.147400
vn -0.866400 0.352800 -0.353500
vn -0.363000 0.930400 -0.051100
vn -0.369900 0.927500 -0.054100
vn 0.401700 0.915600 -0.018200
vn 0.394400 0.918700 -0.021900
vn 0.930700 0.365400 0.014200
vn 0.933800 0.357300 0.018600
vn 0.916200 -0.399500 0.030400
vn 0.912200 -0.408200 0.035400
vn 0.363000 -0.931100 0.035300
vn 0.372500 -0.927500 0.030500
vn -0.401600 -0.915600 0.018300
vn -0.392800 -0.919500 0.014500
vn -0.930700 -0.365100 -0.021500
vn -0.933900 -0.357100 -0.018600
vn -0.915200 0.399400 -0.053900
vn -0.912200 0.406500 -0.051300
vn 0.912200 -0.406400 -0.052100
vn 0.915200 -0.399400 -0.054800
vn 0.933800 0.357200 -0.019000
vn 0.930700 0.365200 -0.021900
vn 0.392800 0.919500 0.014800
vn 0.401700 0.915600 0.018600
vn -0.372500 0.927500 0.031300
vn -0.363100 0.931000 0.036100
vn -0.912100 0.408300 0.036300
vn -0.916300 0.399400 0.031200
vn -0.933800 -0.357200 0.019000
vn -0.930700 -0.365400 0.014500
vn -0.394500 -0.918600 -0.022300
vn -0.401700 -0.915600 -0.018600
vn 0.369900 -0.927400 -0.055000
vn 0.363000 -0.930300 -0.052000
vn 0.866100 -0.352600 -0.354400
vn 0.866100 -0.352500 -0.354400
vn 0.911900 0.382900 -0.147700
vn 0.911800 0.383000 -0.147700
vn 0.911900 0.382900 -0.147600
vn 0.418500 0.896100 0.147600
vn 0.418500 0.896200 0.147600
vn -0.318100 0.879300 0.354500
vn -0.318000 0.879300 0.354600
vn -0.318200 0.879300 0.354400
vn -0.866100 0.352500 0.354500
vn -0.866100 0.352500 0.354400
vn -0.866000 0.352600 0.354500
vn -0.911900 -0.382900 0.147600
vn -0.911900 -0.382800 0.147700
vn -0.911900 -0.382900 0.147500
vn -0.418500 -0.896100 -0.147700
vn -0.418500 -0.896100 -0.147800
vn -0.418600 -0.896100 -0.147600
vn 0.318100 -0.879300 -0.354400
vn 0.318100 -0.879300 -0.354500
vn 0.318200 -0.879300 -0.354500
vn 0.782400 -0.265400 -0.563400
vn 0.782400 -0.265400 -0.563500
vn 0.782400 -0.265500 -0.563400
vn 0.877000 0.419200 -0.234700
vn 0.877100 0.419200 -0.234700
vn 0.877000 0.419300 -0.234700
vn 0.453400 0.859800 0.234800
vn 0.453500 0.859800 0.234700
vn 0.453500 0.859800 0.234800
vn -0.234400 0.792200 0.563400
vn -0.234400 0.792300 0.563300
vn -0.234400 0.792300 0.563400
vn -0.782400 0.265500 0.563400
vn -0.877100 -0.419100 0.234700
vn -0.877100 -0.419100 0.234600
vn -0.877100 -0.419100 0.234800
vn -0.453400 -0.859800 -0.234700
vn -0.453400 -0.859800 -0.234600
vn -0.453400 -0.859800 -0.234900
vn 0.234400 -0.792200 -0.563400
vn 0.234400 -0.792300 -0.563400
vn 0.664000 -0.142300 -0.734100
vn 0.664000 -0.142200 -0.734100
vn 0.827700 0.470500 -0.305900
vn 0.827700 0.470600 -0.305900
vn 0.502800 0.808500 0.305900
vn 0.502800 0.808500 0.305800
vn -0.116000 0.669000 0.734100
vn -0.116000 0.669100 0.734100
vn -0.664000 0.142300 0.734100
vn -0.663900 0.142300 0.734100
vn -0.827600 -0.470500 0.305900
vn -0.827600 -0.470600 0.305900
vn -0.827700 -0.470500 0.305900
vn -0.502800 -0.808500 -0.305800
vn -0.502800 -0.808600 -0.305700
vn 0.116000 -0.669100 -0.734100
vn 0.116000 -0.669000 -0.734100
vn 0.519000 0.008600 -0.854700
vn 0.519000 0.008500 -0.854700
vn 0.767300 0.533300 -0.356100
vn 0.563100 0.745700 0.356100
vn 0.563200 0.745700 0.356100
vn 0.028900 0.518300 0.854700
vn -0.519100 -0.008500 0.854700
vn -0.519000 -0.008500 0.854800
vn -0.519000 -0.008500 0.854700
vn -0.519100 -0.008400 0.854700
vn -0.767300 -0.533300 0.356100
vn -0.563200 -0.745700 -0.356100
vn -0.029000 -0.518300 -0.854700
vn -0.029000 -0.518200 -0.854800
vn 0.357400 0.176700 -0.917100
vn 0.357400 0.176600 -0.917100
vn 0.700000 0.603400 -0.382100
vn 0.699900 0.603400 -0.382100
vn 0.700000 0.603300 -0.382100
vn 0.630500 0.675700 0.382100
vn 0.630400 0.675700 0.382100
vn 0.190600 0.350100 0.917100
vn 0.190700 0.350000 0.917100
vn 0.190700 0.350100 0.917100
vn -0.357300 -0.176700 0.917100
vn -0.357200 -0.176700 0.917200
vn -0.700000 -0.603400 0.382100
vn -0.699900 -0.603400 0.382100
vn -0.630500 -0.675700 -0.382100
vn -0.630500 -0.675600 -0.382100
vn -0.630500 -0.675700 -0.382000
vn -0.190600 -0.350100 -0.917100
vn -0.190600 -0.350200 -0.917100
usemtl chrome_go
s 1
f 1/1/1 2/2/1 3/3/1
f 3/3/1 4/4/1 1/1/1
f 4/4/2 5/5/3 6/6/2
f 6/6/2 1/1/2 4/4/2
f 5/5/4 7/7/5 8/8/5
f 8/8/5 6/6/4 5/5/4
f 7/7/6 9/9/7 10/10/8
f 10/10/8 8/8/6 7/7/6
f 9/9/9 11/7/9 12/8/9
f 12/8/9 10/10/9 9/9/9
f 11/7/10 13/5/10 14/6/10
f 14/6/10 12/8/11 11/7/10
f 13/5/12 15/4/12 16/1/12
f 16/1/12 14/6/12 13/5/12
f 2/2/13 16/1/13 15/4/13
f 2/2/13 15/4/13 3/3/14
f 17/11/15 18/12/15 4/4/15
f 4/4/15 3/3/15 17/11/15
f 18/12/16 19/13/16 5/5/16
f 5/5/16 4/4/16 18/12/16
f 19/13/17 20/14/17 7/7/17
f 7/7/17 5/5/17 19/13/17
f 20/14/18 21/15/19 9/9/19
f 9/9/19 7/7/18 20/14/18
f 21/15/20 22/14/21 11/7/21
f 11/7/21 9/9/22 21/15/20
f 22/14/23 23/13/23 13/5/23
f 13/5/23 11/7/24 22/14/23
f 23/13/25 24/12/26 15/4/25
f 15/4/25 13/5/27 23/13/25
f 24/12/28 17/11/28 3/3/28
f 3/3/28 15/4/28 24/12/28
f 25/16/29 26/17/30 18/12/29
f 18/12/29 17/11/31 25/16/29
f 26/17/32 27/18/33 19/13/32
f 19/13/32 18/12/34 26/17/32
f 27/18/35 28/19/35 20/14/35
f 20/14/35 19/13/35 27/18/35
f 28/19/36 29/20/37 21/15/38
f 21/15/38 20/14/36 28/19/36
f 29/20/39 30/19/40 22/14/39
f 22/14/39 21/15/39 29/20/39
f 30/19/41 31/18/42 23/13/42
f 23/13/42 22/14/41 30/19/41
f 31/18/43 32/17/44 24/12/43
f 24/12/43 23/13/45 31/18/43
f 32/17/46 25/16/46 17/11/47
f 17/11/47 24/12/47 32/17/46
f 33/21/48 34/22/49 26/17/50
f 26/17/50 25/16/51 33/21/48
f 34/22/52 35/23/52 27/18/52
f 27/18/52 26/17/52 34/22/52
f 35/23/53 36/24/53 28/19/53
f 28/19/53 27/18/54 35/23/53
f 36/24/55 37/25/55 29/20/55
f 29/20/55 28/19/55 36/24/55
f 37/25/56 38/24/56 30/19/56
f 30/19/56 29/20/57 37/25/56
f 38/24/58 39/23/59 31/18/58
f 31/18/58 30/19/60 38/24/58
f 39/23/61 40/26/62 32/17/61
f 32/17/61 31/18/63 39/23/61
f 40/26/64 33/21/64 25/16/64
f 25/16/64 32/17/64 40/26/64
f 41/27/65 42/28/65 34/22/65
f 34/22/65 33/21/65 41/27/65
f 42/28/66 43/29/67 35/23/66
f 35/23/66 34/22/66 42/28/66
f 43/29/68 44/30/69 36/24/70
f 36/24/70 35/23/71 43/29/68
f 44/30/72 45/31/72 37/25/72
f 37/25/72 36/24/73 44/30/72
f 45/31/74 46/30/75 38/24/74
f 38/24/74 37/25/74 45/31/74
f 46/30/76 47/29/76 39/23/76
f 39/23/76 38/24/77 46/30/76
f 47/29/78 48/28/79 40/26/78
f 40/26/78 39/23/80 47/29/78
f 48/28/81 41/27/81 33/21/81
f 33/21/81 40/26/81 48/28/81
f 49/32/82 50/33/82 42/28/82
f 42/28/83 41/27/83 49/32/83
f 50/33/84 51/34/84 43/29/84
f 43/29/85 42/28/85 50/33/85
f 51/34/86 52/35/86 44/30/86
f 44/30/87 43/29/87 51/34/87
f 52/35/88 53/36/88 45/31/88
f 45/31/89 44/30/89 52/35/89
f 53/36/90 54/35/90 46/30/90
f 46/30/91 45/31/91 53/36/91
f 54/35/92 55/34/92 47/29/92
f 47/29/93 46/30/93 54/35/93
f 55/34/94 56/33/94 48/28/94
f 48/28/95 47/29/95 55/34/95
f 56/33/96 49/32/96 41/27/96
f 41/27/97 48/28/97 56/33/97
f 57/37/98 58/38/98 59/39/98
f 59/39/99 60/40/99 57/37/99
f 58/38/100 61/41/100 62/42/100
f 62/42/101 59/39/101 58/38/101
f 61/41/102 63/43/102 64/44/102
f 64/44/103 62/42/103 61/41/103
f 63/43/104 65/45/104 66/46/104
f 66/46/105 64/44/105 63/43/105
f 65/45/106 67/43/106 68/44/106
f 68/44/107 66/46/107 65/45/107
f 67/43/108 69/41/108 70/42/108
f 70/42/109 68/44/109 67/43/109
f 69/41/110 71/38/110 72/39/110
f 72/39/111 70/42/111 69/41/111
f 71/38/112 57/37/112 60/40/112
f 60/40/113 72/39/113 71/38/113
f 73/47/114 74/48/114 58/38/114
f 58/38/114 57/37/115 73/47/114
f 74/48/116 75/49/117 61/41/116
f 61/41/116 58/38/118 74/48/116
f 75/49/119 76/50/119 63/43/119
f 63/43/119 61/41/120 75/49/119
f 76/50/121 77/51/122 65/45/121
f 65/45/121 63/43/123 76/50/121
f 77/51/124 78/50/125 67/43/125
f 67/43/125 65/45/126 77/51/124
f 78/50/127 79/49/128 69/41/127
f 69/41/127 67/43/129 78/50/127
f 79/49/130 80/48/131 71/38/130
f 71/38/130 69/41/132 79/49/130
f 80/48/133 73/47/133 57/37/134
f 57/37/134 71/38/135 80/48/133
f 81/52/136 82/53/137 74/48/136
f 74/48/136 73/47/138 81/52/136
f 82/53/139 83/54/140 75/49/139
f 75/49/139 74/48/141 82/53/139
f 83/54/142 84/55/143 76/50/144
f 76/50/144 75/49/142 83/54/142
f 84/55/145 85/56/146 77/51/147
f 77/51/147 76/50/145 84/55/145
f 85/56/148 86/55/148 78/50/148
f 78/50/148 77/51/148 85/56/148
f 86/55/149 87/54/150 79/49/149
f 79/49/149 78/50/151 86/55/149
f 87/54/152 88/53/153 80/48/152
f 80/48/152 79/49/154 87/54/152
f 88/53/155 81/52/155 73/47/155
f 73/47/155 80/48/156 88/53/155
f 89/57/157 90/58/158 82/53/157
f 82/53/157 81/52/157 89/57/157
f 90/58/159 91/59/159 83/54/159
f 83/54/159 82/53/160 90/58/159
f 91/59/161 92/60/162 84/55/162
f 84/55/162 83/54/161 91/59/161
f 92/60/163 93/61/164 85/56/164
f 85/56/164 84/55/163 92/60/163
f 93/61/165 94/60/166 86/55/165
f 86/55/165 85/56/165 93/61/165
f 94/60/167 95/59/168 87/54/167
f 87/54/167 86/55/169 94/60/167
f 95/59/170 96/58/170 88/53/170
f 88/53/170 87/54/171 95/59/170
f 96/58/172 89/57/172 81/52/173
f 81/52/173 88/53/173 96/58/172
f 97/62/174 98/63/174 90/58/174
f 90/58/174 89/57/175 97/62/174
f 98/63/176 99/64/176 91/59/176
f 91/59/176 90/58/176 98/63/176
f 99/64/177 100/65/177 92/60/177
f 92/60/177 91/59/178 99/64/177
f 100/65/179 101/66/179 93/61/179
f 93/61/179 92/60/179 100/65/179
f 101/66/180 102/65/181 94/60/182
f 94/60/182 93/61/183 101/66/180
f 102/65/184 103/64/184 95/59/184
f 95/59/184 94/60/184 102/65/184
f 103/64/185 104/67/185 96/58/185
f 96/58/185 95/59/185 103/64/185
f 104/67/186 97/62/186 89/57/186
f 89/57/186 96/58/187 104/67/186
f 2/2/188 1/1/189 98/63/188
f 2/2/188 98/63/188 97/62/188
f 1/1/190 6/6/191 99/64/190
f 99/64/190 98/63/192 1/1/190
f 6/6/193 8/8/193 100/65/193
f 100/65/193 99/64/194 6/6/193
f 8/8/195 10/10/196 101/66/197
f 101/66/197 100/65/195 8/8/195
f 10/10/198 12/8/198 102/65/198
f 102/65/198 101/66/199 10/10/198
f 12/8/200 14/6/201 103/64/201
f 103/64/201 102/65/200 12/8/200
f 14/6/202 16/1/203 104/67/202
f 104/67/202 103/64/204 14/6/202
f 16/1/205 2/2/205 97/62/205
f 97/62/205 104/67/206 16/1/205
