# Blender v2.76 (sub 0) OBJ File: ''
# www.blender.org
mtllib taiko_stick.mtl
o Object15
v -0.003835 19.078266 0.021250
v -0.457248 18.719288 -0.482717
v -0.615687 18.719341 -0.270712
v 0.010936 0.003912 0.036630
v -0.459930 0.003370 -0.188178
v -0.338063 0.003322 -0.351256
v -0.680936 18.719498 -0.014218
v -0.510130 0.003480 0.009125
v -0.643056 18.719742 0.247731
v -0.480979 0.003675 0.210616
v -0.507816 18.720026 0.475227
v -0.376953 0.003887 0.385617
v -0.003835 19.078266 0.021250
v -0.507816 18.720026 0.475227
v -0.295804 18.720314 0.633659
v -0.213873 0.004114 0.507497
v -0.003835 19.078266 0.021250
v -0.039315 18.720558 0.698905
v -0.016565 0.004304 0.557687
v -0.003835 19.078266 0.021250
v 0.222634 18.720730 0.661027
v 0.184925 0.004439 0.528546
v -0.003835 19.078266 0.021250
v 0.450136 18.720804 0.525801
v 0.359925 0.004495 0.424518
v -0.003835 19.078266 0.021250
v 0.450136 18.720804 0.525801
v 0.608569 18.720757 0.313784
v 0.481798 0.004457 0.261442
v -0.003835 19.078266 0.021250
v 0.673816 18.720600 0.057291
v 0.531985 0.004332 0.064133
v -0.003835 19.078266 0.021250
v 0.635937 18.720362 -0.204649
v 0.502848 0.004143 -0.137369
v -0.003835 19.078266 0.021250
v 0.500695 18.720070 -0.432153
v 0.398818 0.003932 -0.312367
v -0.003835 19.078266 0.021250
v 0.500695 18.720070 -0.432153
v 0.288698 18.719780 -0.590592
v 0.235738 0.003697 -0.434237
v -0.003835 19.078266 0.021250
v 0.032197 18.719521 -0.655828
v 0.038432 0.003511 -0.484421
v -0.003835 19.078266 0.021250
v -0.229750 18.719345 -0.617954
v -0.163058 0.003369 -0.455289
v -0.229750 18.719345 -0.617954
v -0.468842 11.513790 -0.197456
v -0.346977 11.513754 -0.360537
v -0.459930 0.003370 -0.188178
v -0.338063 0.003322 -0.351256
v -0.459930 0.003370 -0.188178
v -0.519039 11.513905 -0.000160
v -0.510130 0.003480 0.009125
v -0.459930 0.003370 -0.188178
v -0.510130 0.003480 0.009125
v -0.489897 11.514091 0.201341
v -0.480979 0.003675 0.210616
v -0.510130 0.003480 0.009125
v -0.480979 0.003675 0.210616
v -0.385865 11.514313 0.376342
v -0.376953 0.003887 0.385617
v -0.480979 0.003675 0.210616
v -0.376953 0.003887 0.385617
v -0.222789 11.514540 0.498219
v -0.507816 18.720026 0.475227
v -0.507816 18.720026 0.475227
v -0.385865 11.514313 0.376342
v -0.213873 0.004114 0.507497
v -0.385865 11.514313 0.376342
v -0.385865 11.514313 0.376342
v -0.376953 0.003887 0.385617
v -0.213873 0.004114 0.507497
v -0.025478 11.514726 0.548409
v -0.016565 0.004304 0.557687
v -0.213873 0.004114 0.507497
v -0.016565 0.004304 0.557687
v 0.176016 11.514860 0.519263
v 0.184925 0.004439 0.528546
v -0.016565 0.004304 0.557687
v 0.184925 0.004439 0.528546
v 0.351011 11.514912 0.415236
v 0.359925 0.004495 0.424518
v 0.184925 0.004439 0.528546
v 0.359925 0.004495 0.424518
v 0.472884 11.514879 0.252148
v 0.450136 18.720804 0.525801
v 0.450136 18.720804 0.525801
v 0.351011 11.514912 0.415236
v 0.351011 11.514912 0.415236
v 0.351011 11.514912 0.415236
v 0.523070 11.514763 0.054854
v 0.493941 11.514574 -0.146644
v 0.389906 11.514351 -0.321649
v 0.226829 11.514125 -0.443520
v 0.500695 18.720070 -0.432153
v 0.500695 18.720070 -0.432153
v 0.389906 11.514351 -0.321649
v 0.235738 0.003697 -0.434237
v 0.389906 11.514351 -0.321649
v 0.389906 11.514351 -0.321649
v 0.398818 0.003932 -0.312367
v 0.235738 0.003697 -0.434237
v 0.029530 11.513935 -0.493708
v 0.038432 0.003511 -0.484421
v 0.235738 0.003697 -0.434237
v 0.038432 0.003511 -0.484421
v -0.171969 11.513795 -0.464569
v -0.163058 0.003369 -0.455289
v 0.038432 0.003511 -0.484421
v -0.163058 0.003369 -0.455289
v -0.163058 0.003369 -0.455289
v -0.338063 0.003322 -0.351256
v -0.338063 0.003322 -0.351256
v -0.346977 11.513754 -0.360537
v -0.346977 11.513754 -0.360537
v -0.346977 11.513754 -0.360537
v -0.457248 18.719288 -0.482717
vt 0.715762 0.701897
vt 0.593687 0.694497
vt 0.642816 0.693702
vt 0.742928 0.300089
vt 0.792414 0.299589
vt 0.830205 0.300200
vt 0.701738 0.693007
vt 0.747090 0.299054
vt 0.761486 0.692516
vt 0.701131 0.298677
vt 0.812958 0.692304
vt 0.661537 0.298514
vt 0.701897 0.781024
vt 0.692304 0.912172
vt 0.692405 0.850036
vt 0.634331 0.298591
vt 0.692801 0.775882
vt 0.623660 0.298896
vt 0.693434 0.700992
vt 0.631147 0.299383
vt 0.694206 0.636773
vt 0.655651 0.299977
vt 0.284238 0.701897
vt 0.179390 0.694206
vt 0.228522 0.695000
vt 0.693441 0.300588
vt 0.287443 0.695696
vt 0.738767 0.301123
vt 0.347189 0.696187
vt 0.784728 0.301500
vt 0.398663 0.696398
vt 0.824322 0.301663
vt 0.298103 0.781024
vt 0.303602 0.629971
vt 0.303702 0.692102
vt 0.851525 0.301586
vt 0.304099 0.766259
vt 0.862195 0.301281
vt 0.304731 0.841149
vt 0.854710 0.300794
vt 0.561831 0.695269
vt 0.484383 0.542061
vt 0.446592 0.542672
vt 0.207586 0.299589
vt 0.169795 0.300200
vt 0.529706 0.541526
vt 0.252910 0.299054
vt 0.575666 0.541148
vt 0.298869 0.298677
vt 0.615261 0.540985
vt 0.338463 0.298514
vt 0.541063 0.631594
vt 0.540985 0.679388
vt 0.298591 0.311759
vt 0.298514 0.359554
vt 0.541368 0.574549
vt 0.298896 0.254715
vt 0.541854 0.516942
vt 0.299383 0.197109
vt 0.542448 0.467545
vt 0.299977 0.147711
vt 0.416647 0.543059
vt 0.378855 0.542448
vt 0.461970 0.543595
vt 0.507930 0.543972
vt 0.547525 0.544135
vt 0.455942 0.510105
vt 0.455865 0.462311
vt 0.698414 0.190273
vt 0.698337 0.142478
vt 0.456247 0.567147
vt 0.698719 0.247316
vt 0.456734 0.624755
vt 0.699206 0.304922
vt 0.699800 0.354321
vt 0.457328 0.674156
vt 0.305503 0.905367
vn -0.380400 0.880000 -0.284500
vn 0.000800 -1.000000 0.000800
vn -0.460100 0.880000 -0.117600
vn -0.469900 0.880200 0.067100
vn -0.408200 0.880400 0.241600
vn -0.284500 0.880600 0.379100
vn -0.117500 0.880800 0.458800
vn 0.067200 0.880900 0.468500
vn 0.241500 0.881000 0.406800
vn 0.379100 0.881000 0.283100
vn 0.458800 0.880900 0.116200
vn 0.468500 0.880800 -0.068600
vn 0.406800 0.880600 -0.243000
vn 0.000700 -1.000000 0.000800
vn 0.283100 0.880400 -0.380500
vn 0.116100 0.880200 -0.460200
vn -0.068500 0.880000 -0.469900
vn -0.242900 0.880000 -0.408300
vn -0.800800 -0.022400 -0.598500
vn -0.800900 -0.022400 -0.598400
vn -0.801100 -0.001100 -0.598600
vn -0.801000 -0.001100 -0.598600
vn -0.968900 -0.022300 -0.246500
vn -0.969100 -0.000900 -0.246600
vn -0.989500 -0.022000 0.143100
vn -0.989700 -0.000700 0.143100
vn -0.989700 -0.000700 0.143200
vn -0.859400 -0.021600 0.510900
vn -0.859600 -0.000300 0.511000
vn -0.598500 -0.021100 0.800900
vn -0.598500 -0.021100 0.800800
vn -0.598600 0.000200 0.801000
vn -0.246400 -0.020700 0.968900
vn -0.246500 -0.020700 0.968900
vn -0.246500 0.000600 0.969100
vn 0.143100 -0.020400 0.989500
vn 0.143200 0.000900 0.989700
vn 0.143100 0.000900 0.989700
vn 0.510900 -0.020200 0.859400
vn 0.510800 -0.020200 0.859400
vn 0.511000 0.001100 0.859600
vn 0.800900 -0.020200 0.598500
vn 0.801000 0.001100 0.598600
vn 0.968900 -0.020400 0.246500
vn 0.969100 0.000900 0.246500
vn 0.989500 -0.020700 -0.143000
vn 0.989500 -0.020700 -0.143100
vn 0.989700 0.000700 -0.143100
vn 0.859400 -0.021000 -0.510900
vn 0.859600 0.000300 -0.511000
vn 0.598500 -0.021500 -0.800800
vn 0.598600 -0.000200 -0.801000
vn 0.246500 -0.021900 -0.968900
vn 0.246400 -0.021900 -0.968900
vn 0.246500 -0.000600 -0.969100
vn -0.143100 -0.022200 -0.989500
vn -0.143000 -0.022200 -0.989500
vn -0.143100 -0.000900 -0.989700
vn -0.511000 -0.001100 -0.859600
vn -0.510800 -0.022400 -0.859400
vn -0.510900 -0.022400 -0.859400
usemtl 17_-_Default
s 1
f 1/1/1 2/2/1 3/3/1
f 4/4/2 5/5/2 6/6/2
f 1/1/3 3/3/3 7/7/3
f 4/4/2 8/8/2 5/5/2
f 1/1/4 7/7/4 9/9/4
f 4/4/2 10/10/2 8/8/2
f 1/1/5 9/9/5 11/11/5
f 4/4/2 12/12/2 10/10/2
f 13/13/6 14/14/6 15/15/6
f 4/4/2 16/16/2 12/12/2
f 17/13/7 15/15/7 18/17/7
f 4/4/2 19/18/2 16/16/2
f 20/13/8 18/17/8 21/19/8
f 4/4/2 22/20/2 19/18/2
f 23/13/9 21/19/9 24/21/9
f 4/4/2 25/22/2 22/20/2
f 26/23/10 27/24/10 28/25/10
f 4/4/2 29/26/2 25/22/2
f 30/23/11 28/25/11 31/27/11
f 4/4/2 32/28/2 29/26/2
f 33/23/12 31/27/12 34/29/12
f 4/4/2 35/30/2 32/28/2
f 36/23/13 34/29/13 37/31/13
f 4/4/2 38/32/14 35/30/2
f 39/33/15 40/34/15 41/35/15
f 4/4/2 42/36/2 38/32/2
f 43/33/16 41/35/16 44/37/16
f 4/4/2 45/38/2 42/36/2
f 46/33/17 44/37/17 47/39/17
f 4/4/2 48/40/2 45/38/2
f 49/41/18 2/2/18 1/1/18
f 4/4/2 6/6/2 48/40/2
f 2/2/19 50/42/20 3/3/19
f 2/2/19 51/43/20 50/42/20
f 52/44/21 50/42/21 51/43/21
f 51/43/22 53/45/22 54/44/22
f 55/46/23 7/7/23 3/3/23
f 3/3/23 50/42/23 55/46/23
f 56/47/24 55/46/24 50/42/24
f 50/42/24 57/44/24 58/47/24
f 59/48/25 9/9/25 7/7/25
f 7/7/25 55/46/25 59/48/25
f 60/49/26 59/48/26 55/46/26
f 55/46/27 61/47/27 62/49/27
f 63/50/28 11/11/28 9/9/28
f 9/9/28 59/48/28 63/50/28
f 64/51/29 63/50/29 59/48/29
f 59/48/29 65/49/29 66/51/29
f 67/52/30 15/15/30 68/14/30
f 69/14/31 70/53/31 67/52/31
f 71/54/32 67/52/32 72/53/32
f 73/53/32 74/55/32 75/54/32
f 76/56/33 18/17/34 15/15/34
f 15/15/34 67/52/33 76/56/33
f 77/57/35 76/56/35 67/52/35
f 67/52/35 78/54/35 79/57/35
f 80/58/36 21/19/36 18/17/36
f 18/17/36 76/56/36 80/58/36
f 81/59/37 80/58/37 76/56/37
f 76/56/38 82/57/38 83/59/38
f 84/60/39 24/21/40 21/19/40
f 21/19/40 80/58/39 84/60/39
f 85/61/41 84/60/41 80/58/41
f 80/58/41 86/59/41 87/61/41
f 88/62/42 28/25/42 89/24/42
f 90/24/42 91/63/42 88/62/42
f 29/26/43 88/62/43 92/63/43
f 93/63/43 25/22/43 29/26/43
f 94/64/44 31/27/44 28/25/44
f 28/25/44 88/62/44 94/64/44
f 32/28/45 94/64/45 88/62/45
f 88/62/45 29/26/45 32/28/45
f 95/65/46 34/29/47 31/27/47
f 31/27/47 94/64/46 95/65/46
f 35/30/48 95/65/48 94/64/48
f 94/64/48 32/28/48 35/30/48
f 96/66/49 37/31/49 34/29/49
f 34/29/49 95/65/49 96/66/49
f 38/32/50 96/66/50 95/65/50
f 95/65/50 35/30/50 38/32/50
f 97/67/51 41/35/51 98/34/51
f 99/34/51 100/68/51 97/67/51
f 101/69/52 97/67/52 102/68/52
f 103/68/52 104/70/52 105/69/52
f 106/71/53 44/37/54 41/35/54
f 41/35/54 97/67/53 106/71/53
f 107/72/55 106/71/55 97/67/55
f 97/67/55 108/69/55 109/72/55
f 110/73/56 47/39/57 44/37/57
f 44/37/57 106/71/56 110/73/56
f 111/74/58 110/73/58 106/71/58
f 106/71/58 112/72/58 113/74/58
f 110/73/59 114/74/59 115/75/59
f 116/75/59 117/76/59 110/73/59
f 47/39/60 110/73/60 118/76/60
f 119/76/61 120/77/61 47/39/61
