# Blender v2.76 (sub 0) OBJ File: 'interim.blend'
# www.blender.org
mtllib object1.mtl
o Object17
v -0.067401 0.341749 1.844592
v -0.084687 0.364667 1.857246
v -0.071489 0.341749 1.857234
v -0.082643 0.368213 1.844606
v -0.090284 0.354990 1.866498
v -0.082664 0.341758 1.866491
v -0.097932 0.341773 1.869884
v -0.105554 0.355006 1.866503
v -0.111135 0.364695 1.857255
v -0.113181 0.368246 1.844617
v -0.124383 0.341806 1.857251
v -0.128479 0.341815 1.844613
v -0.113202 0.341790 1.866501
v -0.105582 0.328559 1.866494
v -0.111184 0.318887 1.857239
v -0.113238 0.315350 1.844598
v -0.084737 0.318860 1.857230
v -0.082699 0.315318 1.844588
v -0.090312 0.328542 1.866489
vt 0.919616 0.973022
vn 0.834500 0.480400 0.269800
vn 0.834500 0.480500 0.269800
vn 0.834500 0.480500 0.269700
vn 0.599000 0.344600 0.722800
vn 0.215400 0.123500 0.968700
vn 0.000600 0.247900 0.968800
vn 0.001000 0.690800 0.723100
vn 0.001000 0.690700 0.723100
vn 0.001100 0.962800 0.270300
vn -0.833300 0.482200 0.270400
vn -0.597800 0.345900 0.723200
vn -0.597900 0.345900 0.723100
vn -0.214500 0.124000 0.968800
vn -0.214800 -0.124200 0.968700
vn -0.598600 -0.345100 0.722900
vn -0.834300 -0.480600 0.270000
vn -0.834300 -0.480600 0.270100
vn -0.000900 -0.963000 0.269600
vn -0.000900 -0.963000 0.269700
vn -0.000500 -0.691300 0.722600
vn -0.000500 -0.691200 0.722700
vn -0.000500 -0.691200 0.722600
vn 0.000100 -0.248500 0.968600
vn 0.215100 -0.124600 0.968600
vn 0.598300 -0.346400 0.722500
vn 0.598400 -0.346400 0.722500
vn 0.598300 -0.346400 0.722600
vn 0.833400 -0.482400 0.269500
usemtl chrome08_210
s 1
f 1/1/1 2/1/2 3/1/1
f 1/1/1 4/1/3 2/1/2
f 5/1/4 6/1/4 3/1/4
f 3/1/4 2/1/4 5/1/4
f 6/1/5 5/1/5 7/1/5
f 5/1/6 8/1/6 7/1/6
f 8/1/7 5/1/7 2/1/7
f 2/1/7 9/1/8 8/1/7
f 9/1/9 2/1/9 4/1/9
f 4/1/9 10/1/9 9/1/9
f 11/1/10 9/1/10 10/1/10
f 10/1/10 12/1/10 11/1/10
f 13/1/11 8/1/12 9/1/11
f 9/1/11 11/1/11 13/1/11
f 8/1/13 13/1/13 7/1/13
f 13/1/14 14/1/14 7/1/14
f 14/1/15 13/1/15 11/1/15
f 11/1/15 15/1/15 14/1/15
f 15/1/16 11/1/17 12/1/17
f 12/1/17 16/1/16 15/1/16
f 17/1/18 15/1/18 16/1/18
f 16/1/18 18/1/19 17/1/18
f 19/1/20 14/1/21 15/1/22
f 15/1/22 17/1/20 19/1/20
f 14/1/23 19/1/23 7/1/23
f 19/1/24 6/1/24 7/1/24
f 6/1/25 19/1/26 17/1/25
f 17/1/25 3/1/27 6/1/25
f 3/1/28 17/1/28 18/1/28
f 18/1/28 1/1/28 3/1/28
